<svg id="Layer_1" data-name="Layer 1" xmlns="http://www.w3.org/2000/svg" viewBox="0 0 64 64"><title>sunflower</title><path d="M32,25.82a6.18,6.18,0,1,0,5.5,3.33A6.14,6.14,0,0,0,32,25.82Z" id="id_101" style="fill: rgb(30, 43, 46);"></path><path d="M46.84,24.3A16.71,16.71,0,1,0,39.7,46.84,16.73,16.73,0,0,0,46.84,24.3Zm-11.07,15a8.18,8.18,0,1,1,3.49-11A8.13,8.13,0,0,1,35.77,39.26Z" id="id_102" style="fill: rgb(30, 43, 46);"></path><path d="M20.36,45.73l.21-.13-.08.19a16.8,16.8,0,0,0-.72,1.93,19.79,19.79,0,0,0-.92,5,9.58,9.58,0,0,1-5.09,1.55,10.5,10.5,0,0,1,.77-5.93,20.17,20.17,0,0,0,4.08-1.59C19.16,46.46,19.73,46.12,20.36,45.73Z" id="id_103" style="fill: rgb(30, 43, 46);"></path><path d="M37.34,56a9.86,9.86,0,0,1-2.49,4.68,10.36,10.36,0,0,1-3.66-4.74,20.13,20.13,0,0,0,1.76-4,19.77,19.77,0,0,0,.53-2l0-.21.08.2c.26.65.55,1.28.85,1.87A20.27,20.27,0,0,0,37.34,56Z" id="id_104" style="fill: rgb(30, 43, 46);"></path><path d="M32.82,8.11l-.2.34A19.13,19.13,0,0,0,31,12.11c-.19.59-.36,1.21-.53,2l-.05.21-.07-.18c-.25-.62-.54-1.25-.86-1.87a19.91,19.91,0,0,0-2.7-4L26.65,8a9.94,9.94,0,0,1,2.5-4.69A10.41,10.41,0,0,1,32.82,8.11Z" id="id_105" style="fill: rgb(30, 43, 46);"></path><path d="M18.29,20.37l.13.2-.23-.1c-.58-.25-1.2-.47-1.91-.7a19.79,19.79,0,0,0-5-.92,10,10,0,0,1-1.55-5.09,10.57,10.57,0,0,1,5.93.76,19.64,19.64,0,0,0,1.59,4.09A17.46,17.46,0,0,0,18.29,20.37Z" id="id_106" style="fill: rgb(30, 43, 46);"></path><path d="M14.09,33.48l.2,0-.19.08c-.62.25-1.25.54-1.86.85A20.27,20.27,0,0,0,8,37.34a9.86,9.86,0,0,1-4.68-2.49A10.36,10.36,0,0,1,8.1,31.19a19.8,19.8,0,0,0,4,1.76A17.86,17.86,0,0,0,14.09,33.48Z" id="id_107" style="fill: rgb(26, 38, 41);"></path><path d="M49.48,15.67a19.64,19.64,0,0,0-4.09,1.59c-.55.29-1.13.62-1.75,1l-.22.14.09-.2a17.27,17.27,0,0,0,.72-1.93,20.29,20.29,0,0,0,.92-5,9.68,9.68,0,0,1,5.09-1.55A10.57,10.57,0,0,1,49.48,15.67Z" id="id_108" style="fill: rgb(24, 35, 38);"></path><path d="M54.26,50.24a10.4,10.4,0,0,1-5.93-.76,19.64,19.64,0,0,0-1.59-4.09c-.28-.55-.62-1.12-1-1.75l-.12-.19.19.08c.59.25,1.22.48,1.92.7a19.68,19.68,0,0,0,5,.93h0A9.94,9.94,0,0,1,54.26,50.24Z" id="id_109" style="fill: rgb(23, 33, 36);"></path><path d="M60.64,29.15a10.36,10.36,0,0,1-4.74,3.66,20.13,20.13,0,0,0-4-1.76,19.23,19.23,0,0,0-2-.53l-.2,0,.2-.08c.63-.25,1.25-.54,1.86-.85A20.27,20.27,0,0,0,56,26.66,9.86,9.86,0,0,1,60.64,29.15Z" id="id_110" style="fill: rgb(30, 43, 46);"></path><path d="M29.47,14.47a17.42,17.42,0,0,0-5.63,1.81,17.6,17.6,0,0,0-4.72,3.54,18.21,18.21,0,0,1-1-1.67c-2.46-4.73-2.78-9.95-.83-13.29a1,1,0,0,1,1-.49c2.65.22,5.5,1.88,7.82,4.55a19.19,19.19,0,0,1,2.57,3.78Q29.11,13.57,29.47,14.47Z" id="id_111" style="fill: rgb(28, 40, 43);"></path><path d="M44.18,10.31a19.09,19.09,0,0,1-.9,5.67,17.09,17.09,0,0,1-.68,1.82,17.91,17.91,0,0,0-11.1-3.51c.14-.62.3-1.25.5-1.88a18.61,18.61,0,0,1,1.49-3.47C35.34,5.55,38,3.17,40.81,2.43a1,1,0,0,1,1,.32A11.77,11.77,0,0,1,44.18,10.31Z" id="id_112" style="fill: rgb(30, 43, 46);"></path><path d="M59.63,18.27C59.31,22.12,56,26.2,51.3,28.66q-.87.45-1.77.81a17.48,17.48,0,0,0-1.81-5.63,17.27,17.27,0,0,0-3.55-4.72c.54-.34,1.1-.67,1.68-1,4.74-2.46,10-2.78,13.29-.83A1,1,0,0,1,59.63,18.27Z" id="id_113" style="fill: rgb(30, 43, 46);"></path><path d="M61.24,41.83a11.73,11.73,0,0,1-7.56,2.35,18.71,18.71,0,0,1-5.66-.9c-.63-.2-1.24-.42-1.83-.67A17.89,17.89,0,0,0,49.71,32c0-.16,0-.31,0-.47a18.15,18.15,0,0,1,1.89.5c5.08,1.61,9,5.07,10,8.81A1,1,0,0,1,61.24,41.83Z" id="id_114" style="fill: rgb(27, 38, 41);"></path><path d="M46.68,59.14a1,1,0,0,1-.87.49h-.08C41.88,59.31,37.8,56,35.34,51.3c-.3-.58-.57-1.18-.81-1.78a17.49,17.49,0,0,0,5.63-1.8,17.84,17.84,0,0,0,4.72-3.55c.34.54.67,1.1,1,1.68C48.31,50.59,48.63,55.8,46.68,59.14Z" id="id_115" style="fill: rgb(30, 43, 46);"></path><path d="M32.5,49.7a18.84,18.84,0,0,1-.5,1.89c-1.61,5.08-5.07,9-8.81,10a1.07,1.07,0,0,1-.25,0,1,1,0,0,1-.77-.36c-2.49-3-3.06-8.15-1.45-13.22a18.12,18.12,0,0,1,.68-1.83A17.71,17.71,0,0,0,32,49.71Z" id="id_116" style="fill: rgb(29, 40, 43);"></path><path d="M19.83,44.88c-.54.34-1.1.67-1.68,1A17.77,17.77,0,0,1,10.09,48a10.36,10.36,0,0,1-5.23-1.27,1,1,0,0,1-.49-1C4.69,41.88,8,37.8,12.7,35.34q.87-.45,1.77-.81a17.41,17.41,0,0,0,1.81,5.63A17.68,17.68,0,0,0,19.83,44.88Z" id="id_117" style="fill: rgb(30, 43, 46);"></path><path d="M17.8,21.39A17.8,17.8,0,0,0,14.29,32.5a18,18,0,0,1-1.88-.5c-5.08-1.61-9-5.07-10-8.81a1,1,0,0,1,.33-1c3-2.49,8.15-3.06,13.22-1.45C16.6,20.92,17.21,21.14,17.8,21.39Z" id="id_118" style="fill: rgb(28, 38, 41);"></path></svg>