<svg xmlns="http://www.w3.org/2000/svg" xmlns:xlink="http://www.w3.org/1999/xlink" width="500" zoomAndPan="magnify" viewBox="0 0 375 217.499994" height="290" preserveAspectRatio="xMidYMid meet" version="1.0"><defs><g/><clipPath id="4751ad0b79"><path d="M 37.84375 38 L 336.960938 38 L 336.960938 179.230469 L 37.84375 179.230469 Z M 37.84375 38 " clip-rule="nonzero"/></clipPath><clipPath id="02383c43ed"><path d="M 168.792969 46.308594 L 206.207031 46.308594 L 206.207031 83.722656 L 168.792969 83.722656 Z M 168.792969 46.308594 " clip-rule="nonzero"/></clipPath><clipPath id="cabb24cbb8"><path d="M 187.5 46.308594 C 177.167969 46.308594 168.792969 54.683594 168.792969 65.015625 C 168.792969 75.347656 177.167969 83.722656 187.5 83.722656 C 197.832031 83.722656 206.207031 75.347656 206.207031 65.015625 C 206.207031 54.683594 197.832031 46.308594 187.5 46.308594 " clip-rule="nonzero"/></clipPath></defs><g clip-path="url(#4751ad0b79)"><path fill="#feadb9" d="M 276.535156 51.785156 Z M 319.816406 128.390625 L 319.792969 128.445312 L 319.761719 128.511719 L 319.835938 128.328125 C 319.835938 128.347656 319.824219 128.371094 319.816406 128.390625 C 318.667969 131.722656 316.964844 134.832031 314.78125 137.59375 C 312.585938 140.390625 310.007812 142.859375 307.136719 144.921875 C 304.253906 147.007812 301.097656 148.664062 297.765625 149.867188 C 296.542969 150.304688 295.308594 150.664062 294.042969 150.945312 C 293.277344 155.03125 291.101562 158.710938 287.902344 161.363281 C 284.714844 164.003906 280.683594 165.457031 276.535156 165.457031 L 211.757812 165.457031 C 209.222656 169.648438 205.652344 173.121094 201.390625 175.53125 C 197.121094 177.945312 192.304688 179.210938 187.402344 179.222656 C 182.5 179.210938 177.683594 177.945312 173.414062 175.53125 C 169.152344 173.121094 165.582031 169.648438 163.046875 165.457031 L 102.988281 165.457031 C 98.957031 165.457031 95.050781 164.089844 91.902344 161.589844 C 88.746094 159.089844 86.542969 155.585938 85.632812 151.667969 C 82.695312 151.472656 79.804688 150.859375 77.039062 149.867188 C 73.707031 148.664062 70.550781 147.007812 67.667969 144.921875 C 64.796875 142.859375 62.21875 140.390625 60.023438 137.59375 C 57.839844 134.832031 56.136719 131.722656 54.988281 128.390625 C 54.980469 128.371094 54.96875 128.347656 54.96875 128.328125 L 55.046875 128.511719 L 55.011719 128.445312 L 54.988281 128.390625 L 54.957031 128.335938 L 53.320312 123.390625 C 53.210938 123.085938 53.078125 122.792969 52.925781 122.519531 C 52.707031 122.082031 52.457031 121.667969 52.183594 121.273438 C 51.910156 120.871094 51.617188 120.488281 51.300781 120.117188 C 51.089844 119.867188 50.863281 119.636719 50.621094 119.417969 L 43.128906 113.085938 L 37.84375 108.609375 L 43.5 103.839844 L 50.621094 97.8125 C 50.863281 97.605469 51.089844 97.375 51.300781 97.125 C 51.617188 96.753906 51.910156 96.371094 52.183594 95.96875 C 52.457031 95.5625 52.707031 95.148438 52.925781 94.722656 C 53.078125 94.441406 53.210938 94.144531 53.308594 93.839844 L 54.957031 88.90625 L 54.988281 88.839844 L 55.011719 88.796875 L 55.046875 88.730469 L 54.96875 88.90625 C 54.96875 88.882812 54.980469 88.859375 54.988281 88.839844 C 56.136719 85.507812 57.839844 82.398438 60.023438 79.636719 C 62.21875 76.851562 64.796875 74.382812 67.667969 72.308594 C 70.550781 70.234375 73.707031 68.578125 77.039062 67.375 C 79.804688 66.371094 82.695312 65.761719 85.632812 65.574219 C 86.542969 61.644531 88.746094 58.152344 91.902344 55.652344 C 95.050781 53.140625 98.957031 51.785156 102.988281 51.785156 L 163.046875 51.785156 C 165.582031 47.582031 169.152344 44.113281 173.414062 41.699219 C 177.683594 39.285156 182.5 38.019531 187.402344 38.019531 C 192.414062 38.019531 197.328125 39.351562 201.664062 41.863281 C 206 44.375 209.59375 47.988281 212.085938 52.332031 L 276.535156 51.785156 C 280.683594 51.785156 284.714844 53.226562 287.902344 55.878906 C 291.101562 58.523438 293.277344 62.210938 294.042969 66.285156 C 295.308594 66.566406 296.542969 66.929688 297.765625 67.375 C 301.097656 68.578125 304.253906 70.234375 307.136719 72.308594 C 310.007812 74.382812 312.585938 76.851562 314.78125 79.636719 C 316.964844 82.398438 318.667969 85.507812 319.816406 88.839844 L 319.847656 88.90625 L 321.496094 93.839844 C 321.59375 94.144531 321.726562 94.441406 321.878906 94.722656 C 322.097656 95.148438 322.347656 95.5625 322.621094 95.96875 C 322.894531 96.371094 323.191406 96.753906 323.507812 97.125 C 323.714844 97.375 323.941406 97.605469 324.183594 97.8125 L 331.304688 103.839844 L 336.960938 108.609375 L 331.675781 113.085938 L 324.183594 119.417969 C 323.941406 119.636719 323.714844 119.867188 323.507812 120.117188 C 323.191406 120.488281 322.894531 120.871094 322.621094 121.273438 C 322.347656 121.667969 322.097656 122.082031 321.878906 122.519531 C 321.726562 122.792969 321.59375 123.085938 321.484375 123.390625 L 319.847656 128.335938 Z M 319.816406 88.839844 C 319.824219 88.859375 319.835938 88.882812 319.835938 88.90625 L 319.761719 88.730469 L 319.792969 88.796875 Z M 319.816406 88.839844 " fill-opacity="1" fill-rule="evenodd"/></g><path fill="#f9e1e0" d="M 313.445312 91.289062 L 313.445312 91.300781 Z M 313.382812 91.128906 C 313.359375 91.074219 313.339844 91.019531 313.316406 90.964844 C 312.382812 88.238281 310.996094 85.695312 309.203125 83.4375 C 307.355469 81.085938 305.183594 79.003906 302.757812 77.261719 C 300.328125 75.511719 297.675781 74.105469 294.851562 73.097656 C 292.617188 72.28125 290.261719 71.796875 287.878906 71.679688 C 288.285156 68.230469 287.203125 64.761719 284.902344 62.164062 C 282.59375 59.566406 279.285156 58.082031 275.804688 58.082031 L 210.746094 58.082031 C 209.199219 58.082031 207.78125 57.257812 207.019531 55.925781 C 205.03125 52.46875 202.183594 49.589844 198.734375 47.59375 C 195.296875 45.59375 191.386719 44.542969 187.402344 44.542969 C 183.417969 44.542969 179.507812 45.59375 176.070312 47.59375 C 172.621094 49.589844 169.773438 52.46875 167.785156 55.925781 C 167.023438 57.257812 165.605469 58.082031 164.058594 58.082031 L 103.640625 58.082031 C 103.640625 58.082031 103.632812 58.082031 103.632812 58.082031 C 100.152344 58.082031 96.820312 59.578125 94.519531 62.195312 C 92.210938 64.804688 91.148438 68.296875 91.589844 71.753906 C 87.65625 71.28125 83.671875 71.742188 79.945312 73.097656 C 77.128906 74.105469 74.476562 75.511719 72.046875 77.261719 C 69.621094 79.003906 67.449219 81.085938 65.601562 83.4375 C 63.808594 85.695312 62.421875 88.238281 61.488281 90.964844 C 61.464844 91.019531 61.445312 91.074219 61.421875 91.128906 L 59.875 95.777344 C 59.683594 96.359375 59.433594 96.925781 59.144531 97.472656 C 58.832031 98.066406 58.492188 98.632812 58.101562 99.191406 C 57.738281 99.738281 57.328125 100.277344 56.898438 100.78125 C 56.511719 101.234375 56.09375 101.664062 55.644531 102.046875 C 55.632812 102.058594 55.621094 102.070312 55.601562 102.09375 L 48.585938 108.019531 L 47.875 108.621094 L 48.230469 108.921875 L 55.601562 115.148438 C 55.621094 115.160156 55.632812 115.171875 55.644531 115.183594 C 56.09375 115.578125 56.511719 116 56.898438 116.460938 C 57.328125 116.964844 57.738281 117.492188 58.101562 118.050781 C 58.492188 118.597656 58.832031 119.175781 59.144531 119.769531 C 59.433594 120.304688 59.671875 120.851562 59.863281 121.433594 C 59.863281 121.441406 59.875 121.441406 59.875 121.453125 L 61.421875 126.105469 C 61.445312 126.15625 61.464844 126.222656 61.488281 126.277344 C 62.410156 128.992188 63.808594 131.539062 65.601562 133.792969 C 67.4375 136.144531 69.621094 138.226562 72.046875 139.980469 C 74.464844 141.730469 77.128906 143.125 79.945312 144.132812 C 83.671875 145.488281 87.65625 145.949219 91.589844 145.488281 C 91.148438 148.945312 92.210938 152.425781 94.519531 155.046875 C 96.820312 157.65625 100.152344 159.160156 103.632812 159.160156 C 103.632812 159.160156 103.640625 159.160156 103.640625 159.160156 L 164.058594 159.160156 C 165.605469 159.160156 167.023438 159.984375 167.785156 161.316406 C 169.773438 164.773438 172.621094 167.640625 176.070312 169.640625 C 179.507812 171.636719 183.417969 172.6875 187.402344 172.699219 C 191.386719 172.6875 195.296875 171.636719 198.734375 169.640625 C 202.183594 167.640625 205.03125 164.773438 207.019531 161.316406 C 207.78125 159.984375 209.199219 159.160156 210.746094 159.160156 L 275.804688 159.160156 C 279.285156 159.160156 282.59375 157.664062 284.902344 155.066406 C 287.214844 152.46875 288.285156 149 287.878906 145.550781 C 290.261719 145.433594 292.617188 144.960938 294.851562 144.132812 C 297.675781 143.125 300.328125 141.730469 302.757812 139.980469 C 305.183594 138.226562 307.367188 136.144531 309.203125 133.792969 C 310.996094 131.539062 312.394531 128.992188 313.316406 126.277344 C 313.339844 126.222656 313.359375 126.15625 313.382812 126.105469 L 314.929688 121.453125 C 314.929688 121.441406 314.941406 121.441406 314.941406 121.433594 C 315.132812 120.851562 315.371094 120.304688 315.660156 119.769531 C 315.972656 119.175781 316.316406 118.597656 316.703125 118.050781 C 317.066406 117.492188 317.476562 116.964844 317.90625 116.460938 C 318.292969 116 318.710938 115.578125 319.160156 115.183594 C 319.171875 115.171875 319.183594 115.160156 319.203125 115.148438 L 326.574219 108.921875 L 326.929688 108.621094 L 326.21875 108.019531 L 319.203125 102.09375 C 319.183594 102.070312 319.171875 102.058594 319.160156 102.046875 C 318.710938 101.664062 318.292969 101.234375 317.90625 100.78125 C 317.476562 100.277344 317.066406 99.738281 316.703125 99.191406 C 316.316406 98.632812 315.972656 98.066406 315.660156 97.472656 C 315.371094 96.925781 315.121094 96.359375 314.929688 95.777344 L 313.382812 91.128906 L 313.328125 90.964844 L 313.445312 91.289062 M 313.445312 125.941406 L 313.445312 125.953125 L 313.445312 125.941406 L 313.328125 126.265625 L 313.382812 126.105469 M 61.359375 125.941406 L 61.359375 125.953125 Z M 61.421875 126.105469 L 61.476562 126.265625 L 61.359375 125.941406 M 61.359375 91.289062 L 61.359375 91.300781 L 61.359375 91.289062 L 61.476562 90.964844 L 61.421875 91.128906 M 311.296875 91.300781 Z M 315.378906 90.332031 L 315.359375 90.289062 L 315.335938 90.214844 C 314.328125 87.28125 312.824219 84.542969 310.890625 82.105469 C 308.925781 79.59375 306.605469 77.382812 304.015625 75.523438 C 301.425781 73.65625 298.589844 72.152344 295.582031 71.078125 C 293.808594 70.433594 291.972656 69.972656 290.101562 69.726562 C 289.984375 66.40625 288.71875 63.226562 286.515625 60.738281 C 283.796875 57.6875 279.898438 55.9375 275.804688 55.9375 L 210.746094 55.9375 C 209.972656 55.9375 209.265625 55.527344 208.886719 54.863281 C 206.71875 51.070312 203.59375 47.925781 199.8125 45.734375 C 196.050781 43.542969 191.765625 42.394531 187.402344 42.394531 C 183.039062 42.394531 178.753906 43.542969 174.996094 45.734375 C 171.214844 47.925781 168.085938 51.070312 165.917969 54.863281 C 165.542969 55.527344 164.832031 55.9375 164.058594 55.9375 L 103.632812 55.9375 C 99.527344 55.9375 95.617188 57.699219 92.910156 60.777344 C 90.78125 63.183594 89.535156 66.234375 89.363281 69.433594 C 89.105469 69.433594 88.839844 69.425781 88.582031 69.425781 C 85.390625 69.425781 82.222656 69.980469 79.214844 71.078125 C 76.214844 72.164062 73.378906 73.65625 70.789062 75.523438 C 68.203125 77.382812 65.882812 79.59375 63.914062 82.105469 C 61.980469 84.542969 60.476562 87.28125 59.46875 90.214844 L 59.402344 90.386719 L 57.835938 95.101562 C 57.683594 95.574219 57.480469 96.023438 57.246094 96.464844 C 56.976562 96.992188 56.664062 97.496094 56.332031 97.988281 C 56 98.472656 55.644531 98.945312 55.265625 99.386719 C 54.945312 99.761719 54.601562 100.105469 54.234375 100.425781 C 54.203125 100.449219 54.171875 100.480469 54.148438 100.503906 L 47.199219 106.375 L 44.558594 108.621094 L 46.84375 110.566406 L 54.257812 116.824219 L 54.289062 116.847656 C 54.632812 117.160156 54.964844 117.492188 55.265625 117.855469 C 55.652344 118.296875 56.007812 118.769531 56.332031 119.253906 C 56.664062 119.746094 56.976562 120.25 57.246094 120.777344 C 57.480469 121.207031 57.671875 121.648438 57.824219 122.109375 C 57.835938 122.152344 57.855469 122.183594 57.867188 122.226562 L 59.390625 126.824219 L 59.445312 126.941406 L 59.46875 126.996094 C 60.46875 129.9375 61.980469 132.6875 63.914062 135.125 C 65.882812 137.636719 68.203125 139.859375 70.789062 141.71875 C 73.378906 143.585938 76.214844 145.078125 79.214844 146.152344 C 82.230469 147.25 85.410156 147.808594 88.625 147.808594 C 88.871094 147.808594 89.117188 147.808594 89.363281 147.796875 C 89.535156 151.007812 90.78125 154.058594 92.910156 156.460938 C 95.617188 159.542969 99.527344 161.304688 103.632812 161.304688 L 164.058594 161.304688 C 164.832031 161.304688 165.542969 161.714844 165.917969 162.378906 C 168.085938 166.171875 171.222656 169.308594 174.996094 171.496094 C 178.765625 173.6875 183.039062 174.835938 187.402344 174.847656 C 191.765625 174.835938 196.039062 173.6875 199.8125 171.496094 C 203.582031 169.308594 206.71875 166.171875 208.886719 162.378906 C 209.265625 161.714844 209.972656 161.304688 210.746094 161.304688 L 275.804688 161.304688 C 279.898438 161.304688 283.796875 159.554688 286.515625 156.496094 C 288.71875 154.003906 289.984375 150.824219 290.101562 147.507812 C 291.972656 147.257812 293.808594 146.808594 295.582031 146.152344 C 298.589844 145.078125 301.425781 143.585938 304.015625 141.71875 C 306.605469 139.859375 308.925781 137.636719 310.890625 135.125 C 312.824219 132.6875 314.339844 129.9375 315.335938 126.996094 L 315.359375 126.941406 L 315.414062 126.824219 L 316.9375 122.226562 C 316.949219 122.183594 316.96875 122.152344 316.980469 122.109375 C 317.132812 121.648438 317.324219 121.207031 317.5625 120.777344 C 317.828125 120.25 318.140625 119.746094 318.472656 119.253906 C 318.796875 118.769531 319.152344 118.296875 319.539062 117.855469 C 319.839844 117.492188 320.171875 117.160156 320.515625 116.847656 L 320.546875 116.824219 L 327.960938 110.566406 L 330.25 108.621094 L 327.605469 106.375 L 320.65625 100.503906 C 320.632812 100.480469 320.601562 100.449219 320.570312 100.425781 C 320.203125 100.105469 319.859375 99.761719 319.539062 99.386719 C 319.160156 98.945312 318.808594 98.472656 318.472656 97.988281 C 318.140625 97.496094 317.828125 96.992188 317.5625 96.464844 C 317.324219 96.023438 317.121094 95.574219 316.96875 95.101562 L 315.421875 90.449219 L 315.371094 90.289062 L 315.359375 90.289062 M 315.335938 90.214844 L 315.316406 90.171875 L 315.347656 90.269531 C 315.347656 90.257812 315.335938 90.234375 315.335938 90.214844 Z M 59.46875 90.214844 C 59.46875 90.234375 59.457031 90.257812 59.457031 90.269531 L 59.488281 90.171875 Z M 54.148438 100.503906 C 54.140625 100.511719 54.128906 100.523438 54.128906 100.535156 L 54.105469 100.546875 L 54.085938 100.578125 L 54.214844 100.449219 Z M 57.867188 122.226562 C 57.886719 122.28125 57.921875 122.335938 57.941406 122.386719 L 57.953125 122.398438 L 57.953125 122.410156 L 57.835938 122.128906 Z M 316.9375 122.226562 L 316.96875 122.128906 L 316.851562 122.410156 L 316.851562 122.398438 L 316.863281 122.386719 C 316.882812 122.335938 316.917969 122.28125 316.9375 122.226562 Z M 320.515625 116.847656 C 320.539062 116.835938 320.558594 116.816406 320.582031 116.804688 L 320.449219 116.902344 Z M 320.65625 100.503906 L 320.589844 100.449219 L 320.71875 100.578125 L 320.699219 100.546875 L 320.675781 100.535156 C 320.675781 100.523438 320.664062 100.511719 320.65625 100.503906 Z M 59.210938 125.953125 Z M 59.382812 126.78125 L 59.433594 126.941406 M 59.210938 91.289062 L 59.210938 91.300781 L 59.382812 90.449219 " fill-opacity="1" fill-rule="evenodd"/><g clip-path="url(#02383c43ed)"><g clip-path="url(#cabb24cbb8)"><path fill="#f9e1e0" d="M 168.792969 46.308594 L 206.207031 46.308594 L 206.207031 83.722656 L 168.792969 83.722656 Z M 168.792969 46.308594 " fill-opacity="1" fill-rule="nonzero"/></g></g><g fill="#ff3873" fill-opacity="0.302"><g transform="translate(183.19341, 76.982497)"><g><path d="M 2.660156 -20.808594 C 2.570312 -21.058594 2.308594 -21.164062 2.007812 -21.054688 C 1.484375 -20.867188 1.476562 -19.628906 0.199219 -16.5 C -0.65625 -14.394531 -1.453125 -12.453125 -2.535156 -12.011719 C -2.859375 -11.894531 -3.050781 -11.882812 -3.140625 -12.132812 C -3.183594 -12.257812 -3.207031 -12.472656 -3.203125 -12.699219 C -3.203125 -12.785156 -3.222656 -12.835938 -3.25 -12.910156 C -3.320312 -13.109375 -3.492188 -13.273438 -3.691406 -13.285156 C -3.777344 -13.285156 -3.859375 -13.28125 -3.933594 -13.253906 C -4.160156 -13.175781 -4.316406 -12.980469 -4.335938 -12.71875 C -4.34375 -12.351562 -4.277344 -12.007812 -4.171875 -11.707031 C -3.914062 -10.984375 -3.160156 -10.605469 -2.136719 -10.96875 C -0.480469 -11.617188 0.621094 -14.289062 1.53125 -16.945312 L 1.21875 -1.476562 C 1.210938 -1.105469 1.601562 -0.796875 1.949219 -0.921875 C 2.175781 -1 2.355469 -1.203125 2.351562 -1.457031 L 2.71875 -19.847656 C 2.726562 -20.300781 2.722656 -20.632812 2.660156 -20.808594 Z M 2.660156 -20.808594 "/></g></g></g><g fill="#ff3873" fill-opacity="0.302"><g transform="translate(191.677538, 73.960057)"><g><path d="M 0.753906 -15.96875 C 1.953125 -16.394531 2.671875 -17.691406 2.445312 -18.960938 C 2.183594 -20.328125 0.816406 -21.082031 -0.480469 -20.617188 C -1.679688 -20.191406 -2.40625 -18.917969 -2.179688 -17.648438 C -1.910156 -16.257812 -0.570312 -15.496094 0.753906 -15.96875 Z M 0.378906 -17.015625 C -0.316406 -16.765625 -0.929688 -17.140625 -1.078125 -17.875 C -1.210938 -18.558594 -0.78125 -19.332031 -0.109375 -19.570312 C 0.566406 -19.8125 1.203125 -19.445312 1.34375 -18.738281 C 1.484375 -18.027344 1.054688 -17.253906 0.378906 -17.015625 Z M 0.378906 -17.015625 "/></g></g></g><g fill="#ff3873" fill-opacity="0.502"><g transform="translate(182.569108, 76.901505)"><g><path d="M 2.660156 -20.808594 C 2.570312 -21.058594 2.308594 -21.164062 2.007812 -21.054688 C 1.484375 -20.867188 1.476562 -19.628906 0.199219 -16.5 C -0.65625 -14.394531 -1.453125 -12.453125 -2.535156 -12.011719 C -2.859375 -11.894531 -3.050781 -11.882812 -3.140625 -12.132812 C -3.183594 -12.257812 -3.207031 -12.472656 -3.203125 -12.699219 C -3.203125 -12.785156 -3.222656 -12.835938 -3.25 -12.910156 C -3.320312 -13.109375 -3.492188 -13.273438 -3.691406 -13.285156 C -3.777344 -13.285156 -3.859375 -13.28125 -3.933594 -13.253906 C -4.160156 -13.175781 -4.316406 -12.980469 -4.335938 -12.71875 C -4.34375 -12.351562 -4.277344 -12.007812 -4.171875 -11.707031 C -3.914062 -10.984375 -3.160156 -10.605469 -2.136719 -10.96875 C -0.480469 -11.617188 0.621094 -14.289062 1.53125 -16.945312 L 1.21875 -1.476562 C 1.210938 -1.105469 1.601562 -0.796875 1.949219 -0.921875 C 2.175781 -1 2.355469 -1.203125 2.351562 -1.457031 L 2.71875 -19.847656 C 2.726562 -20.300781 2.722656 -20.632812 2.660156 -20.808594 Z M 2.660156 -20.808594 "/></g></g></g><g fill="#ff3873" fill-opacity="0.502"><g transform="translate(191.053236, 73.879065)"><g><path d="M 0.753906 -15.96875 C 1.953125 -16.394531 2.671875 -17.691406 2.445312 -18.960938 C 2.183594 -20.328125 0.816406 -21.082031 -0.480469 -20.617188 C -1.679688 -20.191406 -2.40625 -18.917969 -2.179688 -17.648438 C -1.910156 -16.257812 -0.570312 -15.496094 0.753906 -15.96875 Z M 0.378906 -17.015625 C -0.316406 -16.765625 -0.929688 -17.140625 -1.078125 -17.875 C -1.210938 -18.558594 -0.78125 -19.332031 -0.109375 -19.570312 C 0.566406 -19.8125 1.203125 -19.445312 1.34375 -18.738281 C 1.484375 -18.027344 1.054688 -17.253906 0.378906 -17.015625 Z M 0.378906 -17.015625 "/></g></g></g><g fill="#000000" fill-opacity="1"><g transform="translate(181.944834, 76.820516)"><g><path d="M 2.660156 -20.808594 C 2.570312 -21.058594 2.308594 -21.164062 2.007812 -21.054688 C 1.484375 -20.867188 1.476562 -19.628906 0.199219 -16.5 C -0.65625 -14.394531 -1.453125 -12.453125 -2.535156 -12.011719 C -2.859375 -11.894531 -3.050781 -11.882812 -3.140625 -12.132812 C -3.183594 -12.257812 -3.207031 -12.472656 -3.203125 -12.699219 C -3.203125 -12.785156 -3.222656 -12.835938 -3.25 -12.910156 C -3.320312 -13.109375 -3.492188 -13.273438 -3.691406 -13.285156 C -3.777344 -13.285156 -3.859375 -13.28125 -3.933594 -13.253906 C -4.160156 -13.175781 -4.316406 -12.980469 -4.335938 -12.71875 C -4.34375 -12.351562 -4.277344 -12.007812 -4.171875 -11.707031 C -3.914062 -10.984375 -3.160156 -10.605469 -2.136719 -10.96875 C -0.480469 -11.617188 0.621094 -14.289062 1.53125 -16.945312 L 1.21875 -1.476562 C 1.210938 -1.105469 1.601562 -0.796875 1.949219 -0.921875 C 2.175781 -1 2.355469 -1.203125 2.351562 -1.457031 L 2.71875 -19.847656 C 2.726562 -20.300781 2.722656 -20.632812 2.660156 -20.808594 Z M 2.660156 -20.808594 "/></g></g></g><g fill="#000000" fill-opacity="1"><g transform="translate(190.428962, 73.798076)"><g><path d="M 0.753906 -15.96875 C 1.953125 -16.394531 2.671875 -17.691406 2.445312 -18.960938 C 2.183594 -20.328125 0.816406 -21.082031 -0.480469 -20.617188 C -1.679688 -20.191406 -2.40625 -18.917969 -2.179688 -17.648438 C -1.910156 -16.257812 -0.570312 -15.496094 0.753906 -15.96875 Z M 0.378906 -17.015625 C -0.316406 -16.765625 -0.929688 -17.140625 -1.078125 -17.875 C -1.210938 -18.558594 -0.78125 -19.332031 -0.109375 -19.570312 C 0.566406 -19.8125 1.203125 -19.445312 1.34375 -18.738281 C 1.484375 -18.027344 1.054688 -17.253906 0.378906 -17.015625 Z M 0.378906 -17.015625 "/></g></g></g></svg>